<svg width="20" height="20" viewBox="0 0 20 20" fill="none" xmlns="http://www.w3.org/2000/svg">
<path fill-rule="evenodd" clip-rule="evenodd" d="M5.27308 6.95618L5.77558 12.9328C5.81224 13.3928 6.18808 13.7378 6.64724 13.7378H6.65058H15.7431H15.7447C16.1789 13.7378 16.5497 13.4145 16.6114 12.9853L17.4031 7.51951C17.4214 7.38951 17.3889 7.25951 17.3097 7.15451C17.2314 7.04868 17.1164 6.98034 16.9864 6.96201C16.8122 6.96868 9.58474 6.95868 5.27308 6.95618V6.95618ZM6.64558 14.9878C5.54808 14.9878 4.61891 14.1312 4.52974 13.0353L3.76641 3.95701L2.51058 3.74034C2.16974 3.68034 1.94224 3.35784 2.00058 3.01701C2.06058 2.67618 2.38974 2.45451 2.72308 2.50784L4.45641 2.80784C4.73558 2.85701 4.94808 3.08868 4.97224 3.37201L5.16808 5.70618C17.0647 5.71118 17.1031 5.71701 17.1606 5.72368C17.6247 5.79118 18.0331 6.03368 18.3114 6.40701C18.5897 6.77951 18.7064 7.23868 18.6397 7.69868L17.8489 13.1637C17.6997 14.2037 16.7964 14.9878 15.7464 14.9878H15.7422H6.65224H6.64558Z" fill="black"/>
<path fill-rule="evenodd" clip-rule="evenodd" d="M14.4063 10.0364H12.0963C11.7505 10.0364 11.4713 9.75644 11.4713 9.41144C11.4713 9.06644 11.7505 8.78644 12.0963 8.78644H14.4063C14.7513 8.78644 15.0313 9.06644 15.0313 9.41144C15.0313 9.75644 14.7513 10.0364 14.4063 10.0364" fill="black"/>
<path fill-rule="evenodd" clip-rule="evenodd" d="M6.28705 17.2516C6.53789 17.2516 6.74039 17.4541 6.74039 17.7049C6.74039 17.9558 6.53789 18.1591 6.28705 18.1591C6.03539 18.1591 5.83289 17.9558 5.83289 17.7049C5.83289 17.4541 6.03539 17.2516 6.28705 17.2516" fill="black"/>
<mask id="mask0_1_45" style="mask-type:alpha" maskUnits="userSpaceOnUse" x="5" y="17" width="2" height="2">
<path fill-rule="evenodd" clip-rule="evenodd" d="M5.83252 17.7046C5.83252 17.9563 6.03502 18.1596 6.28752 18.1596V18.1596C6.53835 18.1596 6.74085 17.9563 6.74085 17.7046V17.7046C6.74085 17.4538 6.53835 17.2513 6.28752 17.2513V17.2513C6.03502 17.2513 5.83252 17.4538 5.83252 17.7046V17.7046Z" fill="white"/>
</mask>
<g mask="url(#mask0_1_45)">
<path fill-rule="evenodd" clip-rule="evenodd" d="M1.66669 22.3254H10.9075V13.0846H1.66669V22.3254Z" fill="black"/>
</g>
<path fill-rule="evenodd" clip-rule="evenodd" d="M6.28622 17.534C6.19205 17.534 6.11539 17.6107 6.11539 17.7049C6.11539 17.894 6.45789 17.894 6.45789 17.7049C6.45789 17.6107 6.38039 17.534 6.28622 17.534M6.28622 18.784C5.69122 18.784 5.20789 18.2999 5.20789 17.7049C5.20789 17.1099 5.69122 16.6265 6.28622 16.6265C6.88122 16.6265 7.36539 17.1099 7.36539 17.7049C7.36539 18.2999 6.88122 18.784 6.28622 18.784" fill="black"/>
<path fill-rule="evenodd" clip-rule="evenodd" d="M15.6873 17.2516C15.9382 17.2516 16.1415 17.4541 16.1415 17.705C16.1415 17.9558 15.9382 18.1591 15.6873 18.1591C15.4357 18.1591 15.2332 17.9558 15.2332 17.705C15.2332 17.4541 15.4357 17.2516 15.6873 17.2516" fill="black"/>
<mask id="mask1_1_45" style="mask-type:alpha" maskUnits="userSpaceOnUse" x="15" y="17" width="2" height="2">
<path fill-rule="evenodd" clip-rule="evenodd" d="M15.2333 17.7046C15.2333 17.9563 15.4358 18.1596 15.6875 18.1596V18.1596C15.9375 18.1596 16.1417 17.9563 16.1417 17.7046V17.7046C16.1417 17.4538 15.9375 17.2513 15.6875 17.2513V17.2513C15.4358 17.2513 15.2333 17.4538 15.2333 17.7046V17.7046Z" fill="white"/>
</mask>
<g mask="url(#mask1_1_45)">
<path fill-rule="evenodd" clip-rule="evenodd" d="M11.0667 22.3254H20.3083V13.0846H11.0667V22.3254Z" fill="black"/>
</g>
<path fill-rule="evenodd" clip-rule="evenodd" d="M15.6865 17.534C15.5932 17.534 15.5165 17.6107 15.5165 17.7049C15.5173 17.8957 15.859 17.894 15.8582 17.7049C15.8582 17.6107 15.7807 17.534 15.6865 17.534M15.6865 18.784C15.0915 18.784 14.6082 18.2999 14.6082 17.7049C14.6082 17.1099 15.0915 16.6265 15.6865 16.6265C16.2823 16.6265 16.7665 17.1099 16.7665 17.7049C16.7665 18.2999 16.2823 18.784 15.6865 18.784" fill="black"/>
</svg>
